<?xml version="1.0" encoding="utf-8"?>
<!-- Generator: Adobe Illustrator 17.1.0, SVG Export Plug-In . SVG Version: 6.00 Build 0)  -->
<!DOCTYPE svg PUBLIC "-//W3C//DTD SVG 1.1//EN" "http://www.w3.org/Graphics/SVG/1.1/DTD/svg11.dtd">
<svg version="1.1" id="Layer_1" xmlns="http://www.w3.org/2000/svg" xmlns:xlink="http://www.w3.org/1999/xlink" x="0px" y="0px"
	 width="240px" height="240px" viewBox="0 0 240 240" enable-background="new 0 0 240 240" xml:space="preserve">
<g>
	<g>
		<polyline fill="#CCB269" points="22,6 22,24 2,24 2,0 16,0 22,6 		"/>
	</g>
	<polygon opacity="0.36" fill="#FFFFFF" points="16,0 16,6 22,6 	"/>
	<rect x="6" y="8" fill="#F5F5F5" width="2" height="2"/>
	<rect x="8" y="10" fill="#F5F5F5" width="2" height="2"/>
	<rect x="6" y="12" fill="#F5F5F5" width="2" height="2"/>
	<rect x="8" y="14" fill="#F5F5F5" width="2" height="2"/>
	<rect x="6" y="16" fill="#F5F5F5" width="2" height="2"/>
	<rect x="8" y="18" fill="#F5F5F5" width="2" height="2"/>
	<polygon opacity="0.12" points="22,12 22,6 16,6 	"/>
	<polygon opacity="0.12" points="11,1 10,0 7,1 6,6 7,7 11,7 	"/>
	<rect x="6" fill="#F5F5F5" width="4" height="6"/>
</g>
<g>
	<g>
		<polyline fill="#2A5699" points="22,54 22,72 2,72 2,48 16,48 22,54 		"/>
	</g>
	<polygon opacity="0.36" fill="#FFFFFF" points="16,48 16,54 22,54 	"/>
	<rect x="4" y="50" fill="#F5F5F5" width="10" height="1"/>
	<rect x="4" y="53" fill="#F5F5F5" width="10" height="1"/>
	<rect x="4" y="56" fill="#F5F5F5" width="16" height="1"/>
	<polygon opacity="0.12" points="22,60 22,54 16,54 	"/>
	<rect x="4" y="59" fill="#F5F5F5" width="16" height="1"/>
	<rect x="16" y="62" fill="#F5F5F5" width="4" height="1"/>
	<rect x="16" y="65" fill="#F5F5F5" width="4" height="1"/>
	<rect x="16" y="68" fill="#F5F5F5" width="4" height="1"/>
	<g>
		<path fill="#F5F5F5" d="M12.5,70h-1.9l-1-3.9c0-0.1,0-0.1-0.1-0.2c0-0.1,0-0.2-0.1-0.3c0-0.1-0.1-0.3-0.1-0.4c0-0.1,0-0.3-0.1-0.4
			c0-0.1,0-0.2-0.1-0.4c0-0.1,0-0.2,0-0.3c0,0.1,0,0.2,0,0.3c0,0.1,0,0.2-0.1,0.4S9,65,9,65.1c0,0.1,0,0.3-0.1,0.4
			c0,0.1,0,0.2-0.1,0.3c0,0.1,0,0.2-0.1,0.2l-1,3.9H5.9L4,62h1.7l0.9,4.4c0,0.1,0,0.1,0,0.3s0,0.2,0.1,0.4c0,0.1,0.1,0.3,0.1,0.4
			c0,0.2,0.1,0.3,0.1,0.4c0,0.1,0,0.3,0.1,0.4s0,0.2,0,0.3c0-0.1,0-0.2,0-0.3s0-0.3,0.1-0.4c0-0.1,0-0.3,0.1-0.4s0.1-0.3,0.1-0.4
			c0-0.1,0-0.2,0.1-0.3s0-0.2,0-0.2L8.4,62h1.5l1.1,4.5c0,0,0,0.1,0,0.2s0,0.2,0.1,0.3c0,0.1,0,0.3,0.1,0.4c0,0.1,0.1,0.3,0.1,0.4
			c0,0.1,0,0.3,0.1,0.4s0,0.2,0,0.3c0-0.1,0-0.2,0-0.3s0-0.3,0.1-0.4c0-0.1,0.1-0.3,0.1-0.4c0-0.2,0.1-0.3,0.1-0.4
			c0-0.1,0-0.3,0.1-0.4s0-0.2,0-0.3l0.9-4.4h1.7L12.5,70z"/>
	</g>
</g>
<g>
	<g>
		<polyline fill="#207245" points="22,78 22,96 2,96 2,72 16,72 22,78 		"/>
	</g>
	<polygon opacity="0.36" fill="#FFFFFF" points="16,72 16,78 22,78 	"/>
	<g>
		<path fill="#F5F5F5" d="M8.6,94H4v-8h4.6v1.4H5.7v1.8h2.7v1.4H5.7v2.1h2.9V94z"/>
	</g>
	<rect x="4" y="74" fill="#F5F5F5" width="3" height="2"/>
	<rect x="8" y="74" fill="#F5F5F5" width="3" height="2"/>
	<rect x="12" y="74" fill="#F5F5F5" width="3" height="2"/>
	<rect x="4" y="77" fill="#F5F5F5" width="3" height="2"/>
	<rect x="8" y="77" fill="#F5F5F5" width="3" height="2"/>
	<rect x="12" y="77" fill="#F5F5F5" width="3" height="2"/>
	<rect x="4" y="80" fill="#F5F5F5" width="3" height="2"/>
	<rect x="8" y="80" fill="#F5F5F5" width="3" height="2"/>
	<rect x="12" y="80" fill="#F5F5F5" width="3" height="2"/>
	<rect x="12" y="83" fill="#F5F5F5" width="3" height="2"/>
	<rect x="12" y="86" fill="#F5F5F5" width="3" height="2"/>
	<rect x="12" y="89" fill="#F5F5F5" width="3" height="2"/>
	<rect x="12" y="92" fill="#F5F5F5" width="3" height="2"/>
	<rect x="16" y="80" fill="#F5F5F5" width="3" height="2"/>
	<polygon opacity="0.12" points="22,84 22,78 16,78 	"/>
	<rect x="16" y="83" fill="#F5F5F5" width="3" height="2"/>
	<rect x="16" y="86" fill="#F5F5F5" width="3" height="2"/>
	<rect x="16" y="89" fill="#F5F5F5" width="3" height="2"/>
	<rect x="16" y="92" fill="#F5F5F5" width="3" height="2"/>
</g>
<g>
	<g>
		<polyline fill="#D04424" points="22,102 22,120 2,120 2,96 16,96 22,102 		"/>
	</g>
	<polygon opacity="0.36" fill="#FFFFFF" points="16,96 16,102 22,102 	"/>
	<g>
		<path fill="#F5F5F5" d="M9.2,112.5c0,0.4-0.1,0.7-0.2,1c-0.1,0.3-0.3,0.6-0.5,0.8c-0.2,0.2-0.6,0.4-1,0.6s-0.9,0.2-1.5,0.2H5.7
			v2.8H4v-8h2.2c0.5,0,1,0.1,1.3,0.2c0.4,0.1,0.7,0.3,0.9,0.5c0.2,0.2,0.4,0.5,0.5,0.8S9.2,112.1,9.2,112.5z M5.7,113.8H6
			c0.5,0,0.8-0.1,1.1-0.3c0.2-0.2,0.4-0.5,0.4-0.9c0-0.4-0.1-0.7-0.3-0.9c-0.2-0.2-0.6-0.3-1-0.3H5.7V113.8z"/>
	</g>
	<path fill="#F5F5F5" d="M11,111v7h9v-7H11z M19,117h-7v-3h7V117z M19,113h-7v-1h7V113z"/>
	<path fill="#F5F5F5" d="M8,99c-2.2,0-4,1.8-4,4c0,2.2,1.8,4,4,4s4-1.8,4-4H8V99z"/>
	<path fill="#F5F5F5" d="M9,98v4h4C13,99.8,11.2,98,9,98z"/>
	<rect x="12" y="108" fill="#F5F5F5" width="8" height="1"/>
	<rect x="14" y="105" fill="#F5F5F5" width="6" height="1"/>
	<polygon opacity="0.12" points="22,108 22,102 16,102 	"/>
</g>
<g>
	<g>
		<polyline fill="#077063" points="22,126 22,144 2,144 2,120 16,120 22,126 		"/>
	</g>
	<polygon opacity="0.36" fill="#FFFFFF" points="16,120 16,126 22,126 	"/>
	<g>
		<path fill="#F5F5F5" d="M9.2,136.5c0,0.4-0.1,0.7-0.2,1c-0.1,0.3-0.3,0.6-0.5,0.8c-0.2,0.2-0.6,0.4-1,0.6s-0.9,0.2-1.5,0.2H5.7
			v2.8H4v-8h2.2c0.5,0,1,0.1,1.3,0.2c0.4,0.1,0.7,0.3,0.9,0.5c0.2,0.2,0.4,0.5,0.5,0.8S9.2,136.1,9.2,136.5z M5.7,137.8H6
			c0.5,0,0.8-0.1,1.1-0.3c0.2-0.2,0.4-0.5,0.4-0.9c0-0.4-0.1-0.7-0.3-0.9c-0.2-0.2-0.6-0.3-1-0.3H5.7V137.8z"/>
	</g>
	<path fill="#F5F5F5" d="M11,128v14h9v-14H11z M12,132h4v3h-4V132z M19,141h-7v-1h7V141z M19,139h-7v-1h7V139z M19,137h-7v-1h7V137z
		 M19,135h-2v-1h2V135z M19,133h-2v-1h2V133z M19,131h-7v-2h7V131z"/>
	<polygon opacity="0.12" points="22,132 22,126 16,126 	"/>
</g>
<g>
	<g>
		<polyline fill="#A03437" points="22,150 22,168 2,168 2,144 16,144 22,150 		"/>
	</g>
	<polygon opacity="0.36" fill="#FFFFFF" points="16,144 16,150 22,150 	"/>
	<g>
		<path fill="#F5F5F5" d="M9.6,166L9,164.1H6.3L5.7,166H4l2.6-8h2.1l2.6,8H9.6z M8.6,162.7l-0.5-1.8c0-0.1-0.1-0.2-0.1-0.3
			c0-0.1-0.1-0.3-0.1-0.5s-0.1-0.4-0.1-0.5c0-0.2-0.1-0.3-0.1-0.5c0,0.1,0,0.2-0.1,0.3c0,0.1-0.1,0.2-0.1,0.3c0,0.1-0.1,0.2-0.1,0.4
			c0,0.1-0.1,0.2-0.1,0.3s-0.1,0.2-0.1,0.3c0,0.1,0,0.1-0.1,0.2l-0.5,1.8H8.6z"/>
	</g>
	<path fill="#F5F5F5" d="M16,152c-2.2,0-4,0.9-4,2v9c0,1.1,1.8,2,4,2s4-0.9,4-2v-9C20,152.9,18.2,152,16,152z M16,153
		c1.9,0,3,0.8,3,1c0,0.2-1.1,1-3,1s-3-0.8-3-1C13,153.8,14.1,153,16,153z M13,155.3c0.7,0.4,1.8,0.7,3,0.7s2.3-0.3,3-0.7v1.7
		c0,0.2-1.1,1-3,1s-3-0.8-3-1V155.3z M16,164c-1.9,0-3-0.8-3-1v-1.7c0.7,0.4,1.8,0.7,3,0.7s2.3-0.3,3-0.7v1.7
		C19,163.2,17.9,164,16,164z M16,161c-1.9,0-3-0.8-3-1v-1.7c0.7,0.4,1.8,0.7,3,0.7s2.3-0.3,3-0.7v1.7C19,160.2,17.9,161,16,161z"/>
	<polygon opacity="0.12" points="22,156 22,150 16,150 	"/>
</g>
<g>
	<g>
		<polyline fill="#DDDDDD" points="22,30 22,48 2,48 2,24 16,24 22,30 		"/>
	</g>
	<polygon opacity="0.64" fill="#FFFFFF" points="16,24 16,30 22,30 	"/>
	<rect x="4" y="26" fill="#7F7F7F" width="10" height="1"/>
	<rect x="4" y="29" fill="#7F7F7F" width="10" height="1"/>
	<rect x="4" y="32" fill="#7F7F7F" width="16" height="1"/>
	<polygon opacity="8.000000e-002" points="22,36 22,30 16,30 	"/>
	<rect x="4" y="35" fill="#7F7F7F" width="16" height="1"/>
	<rect x="4" y="38" fill="#7F7F7F" width="16" height="1"/>
	<rect x="4" y="41" fill="#7F7F7F" width="16" height="1"/>
	<rect x="4" y="44" fill="#7F7F7F" width="16" height="1"/>
</g>
<g>
	<g>
		<polyline fill="#DDDDDD" points="46,6 46,24 26,24 26,0 40,0 46,6 		"/>
	</g>
	<polygon opacity="0.64" fill="#FFFFFF" points="40,0 40,6 46,6 	"/>
	<polygon opacity="0.12" points="46,12 46,6 40,6 	"/>
	<path fill="#E34F26" d="M29.1,20.2L28,8h12l-1.1,12.2L34,21.6L29.1,20.2z"/>
	<polygon fill="#FFFFFF" points="32.2,15.8 32.3,17 34,17.4 35.7,17 35.8,15.1 30.6,15.1 30.2,10.5 37.8,10.5 37.6,12 31.9,12 
		32,13.5 37.5,13.5 37.1,18.2 34,19 30.9,18.2 30.7,15.8 	"/>
</g>
<g>
	<g>
		<polyline fill="#DDDDDD" points="46,54 46,72 26,72 26,48 40,48 46,54 		"/>
	</g>
	<polygon opacity="0.64" fill="#FFFFFF" points="40,48 40,54 46,54 	"/>
	<polygon opacity="0.12" points="46,60 46,54 40,54 	"/>
	<polygon opacity="0.12" points="29,70 41,70 41,58 40,57 29,58 28,69 	"/>
	<g id="logo">
		<rect id="background" x="28" y="57" fill="#F7DF1E" width="12" height="12"/>
	</g>
	<g>
		<path id="j" d="M31,66.6l0.9-0.6c0.2,0.3,0.3,0.6,0.7,0.6c0.4,0,0.6-0.1,0.6-0.7v-3.8h1.1v3.9c0,1.2-0.7,1.7-1.7,1.7
			C31.8,67.6,31.3,67.1,31,66.6"/>
		<path id="s" d="M35,66.5l0.9-0.5c0.2,0.4,0.6,0.7,1.1,0.7c0.5,0,0.8-0.2,0.8-0.6c0-0.4-0.3-0.5-0.8-0.7l-0.3-0.1
			c-0.8-0.3-1.4-0.8-1.4-1.7c0-0.8,0.6-1.5,1.7-1.5c0.7,0,1.2,0.2,1.6,0.9l-0.9,0.6C37.5,63.1,37.3,63,37,63c-0.3,0-0.5,0.2-0.5,0.5
			c0,0.3,0.2,0.5,0.7,0.7l0.3,0.1c1,0.4,1.5,0.8,1.5,1.8c0,1-0.8,1.6-1.9,1.6C36,67.6,35.3,67.1,35,66.5"/>
	</g>
</g>
<g>
	<g>
		<polyline fill="#363636" points="46,78 46,96 26,96 26,72 40,72 46,78 		"/>
	</g>
	<polygon opacity="0.36" fill="#FFFFFF" points="40,72 40,78 46,78 	"/>
	<polygon opacity="0.18" points="46,84 46,78 40,78 	"/>
	<path fill="#F5F5F5" d="M36.8,90.8C36.1,91.6,35.1,92,34,92c-2.2,0-4-1.8-4-4c0-2.2,1.8-4,4-4c1.1,0,2.1,0.4,2.8,1.2l1.4-1.4
		C37.2,82.7,35.7,82,34,82c-3.3,0-6,2.7-6,6s2.7,6,6,6c1.7,0,3.2-0.7,4.2-1.8L36.8,90.8z"/>
</g>
<g>
	<g>
		<polyline fill="#363636" points="46,102 46,120 26,120 26,96 40,96 46,102 		"/>
	</g>
	<polygon opacity="0.36" fill="#FFFFFF" points="40,96 40,102 46,102 	"/>
	<polygon opacity="0.18" points="46,108 46,102 40,102 	"/>
	<path fill="#F5F5F5" d="M36.8,114.8c-0.7,0.7-1.7,1.2-2.8,1.2c-2.2,0-4-1.8-4-4c0-2.2,1.8-4,4-4c1.1,0,2.1,0.4,2.8,1.2l1.4-1.4
		c-1.1-1.1-2.6-1.8-4.2-1.8c-3.3,0-6,2.7-6,6s2.7,6,6,6c1.7,0,3.2-0.7,4.2-1.8L36.8,114.8z"/>
	<rect x="37" y="111" fill="#F5F5F5" width="3" height="1"/>
	<rect x="38" y="110" fill="#F5F5F5" width="1" height="3"/>
	<rect x="41" y="111" fill="#F5F5F5" width="3" height="1"/>
	<rect x="42" y="110" fill="#F5F5F5" width="1" height="3"/>
</g>
<g>
	<g>
		<polyline fill="#DDDDDD" points="46,30 46,48 26,48 26,24 40,24 46,30 		"/>
	</g>
	<polygon opacity="0.64" fill="#FFFFFF" points="40,24 40,30 46,30 	"/>
	<polygon opacity="0.12" points="46,36 46,30 40,30 	"/>
	<path fill="#0C73B8" d="M40,32H29.8l-0.4,2h8.2l-0.3,1.3h-8.2l-0.4,2h8.2l-0.5,2.3l-3.3,1.1l-2.9-1.1l0.2-1h-2L28,41l4.7,1.8
		l5.5-1.8L40,32z"/>
</g>
</svg>
